<svg width="341" height="37" viewBox="0 0 341 37" fill="none" xmlns="http://www.w3.org/2000/svg">
<path d="M6.20799 8.016C6.33599 9.264 6.39999 12.256 6.39999 16.992H9.99999C12.56 16.992 14.384 16.928 15.472 16.8C15.6 17.088 15.664 17.6 15.664 18.336C15.664 19.232 15.504 19.856 15.184 20.208C14.864 20.528 14.352 20.704 13.648 20.736C12.848 20.768 11.776 20.784 10.432 20.784H6.39999C6.39999 27.152 6.51199 30.976 6.73599 32.256C8.07999 32.32 9.18399 32.352 10.048 32.352C15.168 32.352 18.48 32 19.984 31.296C20.24 32.032 20.368 32.88 20.368 33.84C20.368 34.576 20.224 35.088 19.936 35.376C19.328 35.856 16.592 36.096 11.728 36.096C7.37599 36.096 4.71999 36.064 3.75999 36C2.76799 35.968 2.09599 35.76 1.74399 35.376C1.42399 34.96 1.26399 34.256 1.26399 33.264C1.26399 32.656 1.27999 31.344 1.31199 29.328C1.34399 27.312 1.35999 25.76 1.35999 24.672V15.36C1.35999 10.88 1.13599 7.248 0.687988 4.464C4.17599 4.176 7.74399 4.032 11.392 4.032C16.128 4.032 18.8 4.272 19.408 4.752C19.696 5.04 19.84 5.552 19.84 6.288C19.84 7.248 19.712 8.112 19.456 8.88C17.696 8.208 14.912 7.872 11.104 7.872C9.56799 7.872 7.93599 7.92 6.20799 8.016Z" fill="#EBE7E7"/>
<path d="M34.3461 32.928C35.8501 32.928 37.3061 32.224 38.7141 30.816C38.6501 24.928 38.6181 20.4 38.6181 17.232C37.2741 16.56 35.9301 16.224 34.5861 16.224C32.7621 16.224 31.3061 16.928 30.2181 18.336C29.1621 19.744 28.6341 21.584 28.6341 23.856C28.6341 26.544 29.1781 28.736 30.2661 30.432C31.3861 32.096 32.7461 32.928 34.3461 32.928ZM23.4021 24.576C23.4021 21.024 24.3781 18.16 26.3301 15.984C28.3141 13.808 30.7141 12.72 33.5301 12.72C35.3861 12.72 37.1141 13.168 38.7141 14.064C38.7141 8.336 38.5221 3.824 38.1381 0.527999C39.0341 0.399999 39.8981 0.335999 40.7301 0.335999C41.7861 0.335999 42.6021 0.559999 43.1781 1.008C43.7541 1.456 44.0421 2.096 44.0421 2.928C44.0421 3.728 43.9621 6.656 43.8021 11.712C43.6741 16.736 43.6101 21.248 43.6101 25.248C43.6101 30.56 43.9141 34.032 44.5221 35.664C43.7221 35.984 42.8421 36.144 41.8821 36.144C40.0901 36.144 39.0981 35.472 38.9061 34.128C37.0501 35.696 35.0821 36.48 33.0021 36.48C30.4101 36.48 28.1541 35.36 26.2341 33.12C24.3461 30.88 23.4021 28.032 23.4021 24.576Z" fill="#EBE7E7"/>
<path d="M64.4564 33.744C62.3444 35.568 59.9124 36.48 57.1604 36.48C52.4564 36.48 50.1044 34.208 50.1044 29.664C50.1044 29.44 50.1204 28.224 50.1524 26.016C50.2164 23.776 50.2484 22.16 50.2484 21.168C50.2484 17.872 49.9764 15.296 49.4324 13.44C50.2964 13.152 51.1764 13.008 52.0724 13.008C53.2564 13.008 54.1044 13.2 54.6164 13.584C55.1284 13.968 55.3844 14.608 55.3844 15.504C55.3844 17.168 55.3364 19.44 55.2404 22.32C55.1444 25.2 55.0964 27.056 55.0964 27.888C55.0964 29.52 55.4324 30.768 56.1044 31.632C56.8084 32.496 57.7044 32.928 58.7924 32.928C60.6484 32.928 62.4244 32.112 64.1204 30.48C64.0884 29.168 64.0724 27.136 64.0724 24.384C64.0724 19.584 63.9604 15.856 63.7364 13.2C64.6324 13.072 65.4324 13.008 66.1364 13.008C68.1844 13.008 69.2084 13.632 69.2084 14.88C69.2084 15.456 69.1764 17.056 69.1124 19.68C69.0484 22.304 69.0164 24.48 69.0164 26.208C69.0164 30.208 69.3204 33.344 69.9284 35.616C69.2564 35.968 68.4564 36.144 67.5284 36.144C66.9204 36.144 66.4404 36.096 66.0884 36C65.7364 35.936 65.4004 35.728 65.0804 35.376C64.7604 34.992 64.5524 34.448 64.4564 33.744Z" fill="#EBE7E7"/>
<path d="M86.9346 29.136C86.9346 27.664 86.9666 26.528 87.0306 25.728C86.0706 25.856 85.3666 25.952 84.9186 26.016C84.5026 26.08 83.9266 26.176 83.1906 26.304C82.4546 26.432 81.9106 26.576 81.5586 26.736C81.2386 26.896 80.8866 27.088 80.5026 27.312C80.1186 27.536 79.8466 27.824 79.6866 28.176C79.5266 28.496 79.4466 28.88 79.4466 29.328C79.4466 30.608 79.7666 31.552 80.4066 32.16C81.0466 32.768 81.8626 33.072 82.8546 33.072C84.4866 33.072 85.8786 32.464 87.0306 31.248C86.9666 30.832 86.9346 30.128 86.9346 29.136ZM87.1266 22.8C87.1266 21.712 87.0946 20.88 87.0306 20.304C86.9986 19.728 86.8706 19.072 86.6466 18.336C86.4546 17.6 86.1026 17.072 85.5906 16.752C85.1106 16.4 84.4546 16.224 83.6226 16.224C82.5666 16.224 81.5586 16.576 80.5986 17.28C79.6706 17.952 78.9986 18.896 78.5826 20.112C75.7346 20.08 74.3106 19.232 74.3106 17.568C74.3106 16.192 75.2706 15.04 77.1906 14.112C79.1426 13.184 81.3506 12.72 83.8146 12.72C86.7586 12.72 88.9026 13.328 90.2466 14.544C91.6226 15.76 92.3106 17.936 92.3106 21.072C92.3106 21.168 92.2946 21.92 92.2626 23.328C92.2306 24.736 92.2146 26.112 92.2146 27.456C92.2146 31.104 92.5186 33.84 93.1266 35.664C92.1986 36.016 91.2866 36.192 90.3906 36.192C88.5986 36.192 87.5266 35.456 87.1746 33.984C85.2546 35.648 83.0946 36.48 80.6946 36.48C78.8386 36.48 77.2866 35.904 76.0386 34.752C74.8226 33.6 74.2146 31.904 74.2146 29.664C74.2146 27.872 74.5986 26.544 75.3666 25.68C76.1346 24.816 77.1586 24.176 78.4386 23.76C80.3586 23.152 83.2546 22.832 87.1266 22.8Z" fill="#EBE7E7"/>
<path d="M100.256 13.056C101.408 13.056 102.224 13.264 102.704 13.68C103.216 14.096 103.472 14.752 103.472 15.648V16.224C105.328 13.888 107.136 12.72 108.896 12.72C110.752 12.72 111.68 13.392 111.68 14.736C111.68 15.632 111.104 16.8 109.952 18.24C109.28 17.664 108.528 17.376 107.696 17.376C106.064 17.376 104.592 18.256 103.28 20.016C103.184 22.064 103.136 24.144 103.136 26.256C103.136 30.448 103.568 33.552 104.432 35.568C103.568 35.984 102.624 36.192 101.6 36.192C100.224 36.192 99.2965 35.888 98.8165 35.28C98.3365 34.672 98.0965 33.696 98.0965 32.352C98.0965 31.968 98.1125 30.88 98.1445 29.088C98.1765 27.296 98.1925 25.888 98.1925 24.864C98.1925 19.52 98.0485 15.664 97.7605 13.296C98.6885 13.136 99.5205 13.056 100.256 13.056Z" fill="#EBE7E7"/>
<path d="M125.284 32.928C126.788 32.928 128.244 32.224 129.652 30.816C129.588 24.928 129.556 20.4 129.556 17.232C128.212 16.56 126.868 16.224 125.524 16.224C123.7 16.224 122.244 16.928 121.156 18.336C120.1 19.744 119.572 21.584 119.572 23.856C119.572 26.544 120.116 28.736 121.204 30.432C122.324 32.096 123.684 32.928 125.284 32.928ZM114.34 24.576C114.34 21.024 115.316 18.16 117.268 15.984C119.252 13.808 121.652 12.72 124.468 12.72C126.324 12.72 128.052 13.168 129.652 14.064C129.652 8.336 129.46 3.824 129.076 0.527999C129.972 0.399999 130.836 0.335999 131.668 0.335999C132.724 0.335999 133.54 0.559999 134.116 1.008C134.692 1.456 134.98 2.096 134.98 2.928C134.98 3.728 134.9 6.656 134.74 11.712C134.612 16.736 134.548 21.248 134.548 25.248C134.548 30.56 134.852 34.032 135.46 35.664C134.66 35.984 133.78 36.144 132.82 36.144C131.028 36.144 130.036 35.472 129.844 34.128C127.988 35.696 126.02 36.48 123.94 36.48C121.348 36.48 119.092 35.36 117.172 33.12C115.284 30.88 114.34 28.032 114.34 24.576Z" fill="#EBE7E7"/>
<path d="M156.786 25.2C156.786 22.64 156.242 20.512 155.154 18.816C154.098 17.088 152.658 16.224 150.834 16.224C148.978 16.224 147.538 16.928 146.514 18.336C145.49 19.744 144.978 21.616 144.978 23.952C144.978 26.544 145.49 28.688 146.514 30.384C147.57 32.08 149.01 32.928 150.834 32.928C152.722 32.928 154.178 32.224 155.202 30.816C156.258 29.408 156.786 27.536 156.786 25.2ZM150.834 36.48C147.506 36.48 144.818 35.408 142.77 33.264C140.754 31.088 139.746 28.192 139.746 24.576C139.746 20.96 140.754 18.08 142.77 15.936C144.818 13.792 147.506 12.72 150.834 12.72C154.194 12.72 156.898 13.792 158.946 15.936C160.994 18.08 162.018 20.96 162.018 24.576C162.018 28.192 160.994 31.088 158.946 33.264C156.898 35.408 154.194 36.48 150.834 36.48Z" fill="#EBE7E7"/>
<path d="M185.196 7.392C184.588 7.392 183.708 7.456 182.556 7.584C182.684 10.016 182.748 13.264 182.748 17.328C183.58 17.392 184.3 17.424 184.908 17.424C189.708 17.424 192.108 15.776 192.108 12.48C192.108 9.088 189.804 7.392 185.196 7.392ZM187.116 32.784C188.844 32.784 190.3 32.256 191.484 31.2C192.668 30.112 193.26 28.64 193.26 26.784C193.26 24.704 192.604 23.12 191.292 22.032C190.012 20.944 188.412 20.4 186.492 20.4C184.764 20.4 183.5 20.48 182.7 20.64C182.7 22.016 182.62 23.904 182.46 26.304C182.332 28.704 182.204 30.288 182.076 31.056C182.588 31.536 183.324 31.952 184.284 32.304C185.276 32.624 186.22 32.784 187.116 32.784ZM176.988 33.456C177.5 29.808 177.756 24.464 177.756 17.424C177.756 11.472 177.548 7.088 177.132 4.272C179.596 3.888 182.268 3.696 185.148 3.696C188.796 3.696 191.772 4.336 194.076 5.616C196.412 6.896 197.58 9.008 197.58 11.952C197.58 15.152 196.188 17.376 193.404 18.624C196.956 20.128 198.732 22.864 198.732 26.832C198.732 29.872 197.692 32.24 195.612 33.936C193.564 35.632 191.052 36.48 188.076 36.48C183.244 36.48 179.548 35.472 176.988 33.456Z" fill="#EBE7E7"/>
<path d="M205.491 13.056C206.643 13.056 207.459 13.264 207.939 13.68C208.451 14.096 208.707 14.752 208.707 15.648V16.224C210.563 13.888 212.371 12.72 214.131 12.72C215.987 12.72 216.915 13.392 216.915 14.736C216.915 15.632 216.339 16.8 215.187 18.24C214.515 17.664 213.763 17.376 212.931 17.376C211.299 17.376 209.827 18.256 208.515 20.016C208.419 22.064 208.371 24.144 208.371 26.256C208.371 30.448 208.803 33.552 209.667 35.568C208.803 35.984 207.859 36.192 206.835 36.192C205.459 36.192 204.531 35.888 204.051 35.28C203.571 34.672 203.331 33.696 203.331 32.352C203.331 31.968 203.347 30.88 203.379 29.088C203.411 27.296 203.427 25.888 203.427 24.864C203.427 19.52 203.283 15.664 202.995 13.296C203.923 13.136 204.755 13.056 205.491 13.056Z" fill="#EBE7E7"/>
<path d="M235.395 25.2C235.395 22.64 234.851 20.512 233.763 18.816C232.707 17.088 231.267 16.224 229.443 16.224C227.587 16.224 226.147 16.928 225.123 18.336C224.099 19.744 223.587 21.616 223.587 23.952C223.587 26.544 224.099 28.688 225.123 30.384C226.179 32.08 227.619 32.928 229.443 32.928C231.331 32.928 232.787 32.224 233.811 30.816C234.867 29.408 235.395 27.536 235.395 25.2ZM229.443 36.48C226.115 36.48 223.427 35.408 221.379 33.264C219.363 31.088 218.355 28.192 218.355 24.576C218.355 20.96 219.363 18.08 221.379 15.936C223.427 13.792 226.115 12.72 229.443 12.72C232.803 12.72 235.507 13.792 237.555 15.936C239.603 18.08 240.627 20.96 240.627 24.576C240.627 28.192 239.603 31.088 237.555 33.264C235.507 35.408 232.803 36.48 229.443 36.48Z" fill="#EBE7E7"/>
<path d="M259.925 33.744C257.813 35.568 255.381 36.48 252.629 36.48C247.925 36.48 245.573 34.208 245.573 29.664C245.573 29.44 245.589 28.224 245.621 26.016C245.685 23.776 245.717 22.16 245.717 21.168C245.717 17.872 245.445 15.296 244.901 13.44C245.765 13.152 246.645 13.008 247.541 13.008C248.725 13.008 249.573 13.2 250.085 13.584C250.597 13.968 250.853 14.608 250.853 15.504C250.853 17.168 250.805 19.44 250.709 22.32C250.613 25.2 250.565 27.056 250.565 27.888C250.565 29.52 250.901 30.768 251.573 31.632C252.277 32.496 253.173 32.928 254.261 32.928C256.117 32.928 257.893 32.112 259.589 30.48C259.557 29.168 259.541 27.136 259.541 24.384C259.541 19.584 259.429 15.856 259.205 13.2C260.101 13.072 260.901 13.008 261.605 13.008C263.653 13.008 264.677 13.632 264.677 14.88C264.677 15.456 264.645 17.056 264.581 19.68C264.517 22.304 264.485 24.48 264.485 26.208C264.485 30.208 264.789 33.344 265.397 35.616C264.725 35.968 263.925 36.144 262.997 36.144C262.389 36.144 261.909 36.096 261.557 36C261.205 35.936 260.869 35.728 260.549 35.376C260.229 34.992 260.021 34.448 259.925 33.744Z" fill="#EBE7E7"/>
<path d="M272.803 0.335999C275.075 0.335999 276.211 1.216 276.211 2.976C276.211 3.168 276.163 3.92 276.067 5.232C275.971 6.512 275.875 8.368 275.779 10.8C275.715 13.232 275.683 15.936 275.683 18.912C275.683 25.056 275.747 29.008 275.875 30.768C276.003 32.528 276.371 34.128 276.979 35.568C276.051 35.984 275.107 36.192 274.147 36.192C272.771 36.192 271.843 35.904 271.363 35.328C270.883 34.72 270.643 33.712 270.643 32.304C270.707 26.288 270.739 21.872 270.739 19.056C270.739 9.36 270.595 3.2 270.307 0.575998C271.203 0.415998 272.035 0.335999 272.803 0.335999Z" fill="#EBE7E7"/>
<path d="M284.382 0.335999C286.654 0.335999 287.789 1.216 287.789 2.976C287.789 3.168 287.741 3.92 287.645 5.232C287.549 6.512 287.453 8.368 287.357 10.8C287.293 13.232 287.261 15.936 287.261 18.912C287.261 25.056 287.326 29.008 287.453 30.768C287.581 32.528 287.949 34.128 288.557 35.568C287.629 35.984 286.685 36.192 285.725 36.192C284.349 36.192 283.422 35.904 282.941 35.328C282.461 34.72 282.221 33.712 282.221 32.304C282.285 26.288 282.317 21.872 282.317 19.056C282.317 9.36 282.173 3.2 281.885 0.575998C282.781 0.415998 283.613 0.335999 284.382 0.335999Z" fill="#EBE7E7"/>
<path d="M309.88 25.2C309.88 22.64 309.336 20.512 308.248 18.816C307.192 17.088 305.752 16.224 303.928 16.224C302.072 16.224 300.632 16.928 299.608 18.336C298.584 19.744 298.072 21.616 298.072 23.952C298.072 26.544 298.584 28.688 299.608 30.384C300.664 32.08 302.104 32.928 303.928 32.928C305.816 32.928 307.272 32.224 308.296 30.816C309.352 29.408 309.88 27.536 309.88 25.2ZM303.928 36.48C300.6 36.48 297.912 35.408 295.864 33.264C293.848 31.088 292.84 28.192 292.84 24.576C292.84 20.96 293.848 18.08 295.864 15.936C297.912 13.792 300.6 12.72 303.928 12.72C307.288 12.72 309.992 13.792 312.04 15.936C314.088 18.08 315.112 20.96 315.112 24.576C315.112 28.192 314.088 31.088 312.04 33.264C309.992 35.408 307.288 36.48 303.928 36.48Z" fill="#EBE7E7"/>
<path d="M325.001 15.408C327.273 13.616 329.833 12.72 332.681 12.72C334.633 12.72 336.217 13.296 337.434 14.448C338.65 15.6 339.257 17.456 339.257 20.016C339.257 20.368 339.225 21.616 339.161 23.76C339.129 25.904 339.113 27.472 339.113 28.464C339.113 31.088 339.529 33.456 340.361 35.568C339.369 35.984 338.473 36.192 337.673 36.192C336.361 36.192 335.434 35.92 334.889 35.376C334.345 34.832 334.073 33.808 334.073 32.304C334.073 30.64 334.105 28.64 334.169 26.304C334.233 23.936 334.266 22.304 334.266 21.408C334.266 19.648 333.914 18.336 333.21 17.472C332.505 16.608 331.593 16.176 330.473 16.176C328.777 16.176 327.017 17.008 325.193 18.672C325.257 22.96 325.289 26.08 325.289 28.032C325.289 31.104 325.385 33.728 325.577 35.904C324.713 36.032 323.913 36.096 323.177 36.096C321.098 36.096 320.057 35.456 320.057 34.176C320.057 33.248 320.09 31.744 320.154 29.664C320.25 27.584 320.297 25.712 320.297 24.048C320.297 18.736 319.993 15.248 319.385 13.584C320.154 13.232 320.986 13.056 321.882 13.056C322.81 13.056 323.529 13.2 324.041 13.488C324.553 13.776 324.874 14.416 325.001 15.408Z" fill="#EBE7E7"/>
</svg>
